<svg width="189" height="99" viewBox="0 0 189 99" fill="none" xmlns="http://www.w3.org/2000/svg">
<circle cx="156.5" cy="32.5" r="25.5" transform="rotate(-17.8943 156.5 32.5)" fill="white"/>
<circle cx="115.728" cy="76.7282" r="20.7339" transform="rotate(-2.81795 115.728 76.7282)" fill="white"/>
<circle cx="66.7279" cy="40.7282" r="14.0542" transform="rotate(3.1371 66.7279 40.7282)" fill="white"/>
<circle cx="50.495" cy="79.4949" r="9.54241" transform="rotate(45.1725 50.495 79.4949)" fill="white"/>
<circle cx="10" cy="63" r="9.54241" transform="rotate(-2.81795 10 63)" fill="white"/>
<path fill-rule="evenodd" clip-rule="evenodd" d="M151.01 19.0102C149.098 18.8489 147.343 19.2957 145.716 20.358C143.849 21.5773 142.648 23.2294 141.965 25.5207C141.311 27.7158 141.486 30.0113 142.493 32.4143C143.279 34.2914 144.435 36.1112 146.675 38.997C148.069 40.7925 152.434 46.1634 152.66 46.3596C152.871 46.5436 152.955 46.5771 153.459 46.6758C153.962 46.7743 154.054 46.7753 154.32 46.6851C154.603 46.589 160.698 43.2726 162.686 42.1329C165.867 40.3093 167.637 39.0622 169.086 37.6229C170.429 36.2894 171.426 34.7234 171.823 33.3236C171.893 33.0755 171.976 32.8634 172.007 32.8522C172.038 32.8409 172.121 32.5461 172.19 32.1969C172.26 31.8478 172.292 31.5714 172.26 31.5828C172.229 31.5941 172.227 31.3881 172.257 31.1249C172.367 30.149 172.255 28.8912 171.966 27.8423C171.478 26.0731 170.359 24.4081 168.939 23.3386C166.766 21.7012 163.81 21.1792 161.38 22.0037C160.31 22.3669 159.132 23.0278 158.367 23.6946C158.189 23.8495 158.024 23.9722 157.999 23.9674C157.974 23.9625 157.868 23.7866 157.764 23.5764C157.659 23.3663 157.39 22.9263 157.166 22.5987C155.703 20.4584 153.592 19.228 151.01 19.0102ZM141.779 26.3077C141.706 26.6727 141.686 26.8239 141.734 26.6437C141.783 26.4635 141.842 26.1648 141.867 25.9801C141.892 25.7953 141.852 25.9427 141.779 26.3077Z" fill="url(#paint0_radial_97_4)"/>
<path fill-rule="evenodd" clip-rule="evenodd" d="M107.308 68.8157C105.825 69.297 104.655 70.1839 103.779 71.491C102.774 72.9914 102.407 74.6056 102.632 76.5353C102.848 78.3839 103.717 80.0463 105.242 81.5275C106.434 82.6846 107.884 83.6822 110.488 85.1363C112.107 86.041 117.1 88.6855 117.332 88.7614C117.549 88.8326 117.623 88.831 118.032 88.7462C118.44 88.6615 118.509 88.6333 118.679 88.4822C118.86 88.3211 122.355 83.9204 123.476 82.4416C125.27 80.0754 126.194 78.585 126.816 77.0517C127.392 75.631 127.634 74.1454 127.482 72.973C127.454 72.7652 127.448 72.5803 127.468 72.5622C127.488 72.544 127.455 72.2974 127.395 72.0142C127.335 71.731 127.269 71.5143 127.249 71.5327C127.23 71.551 127.162 71.3973 127.1 71.191C126.868 70.4263 126.38 69.5202 125.827 68.8264C124.893 67.6562 123.521 66.7626 122.115 66.4093C119.962 65.8685 117.582 66.4086 116.029 67.7905C115.345 68.3992 114.677 69.2645 114.318 70.0045C114.235 70.1763 114.151 70.3203 114.13 70.3245C114.11 70.3287 113.974 70.2304 113.829 70.1061C113.683 69.9818 113.34 69.7373 113.067 69.5626C111.284 68.4218 109.31 68.1657 107.308 68.8157ZM102.746 77.1827C102.808 77.4788 102.842 77.5983 102.82 77.4483C102.798 77.2983 102.747 77.0559 102.706 76.9099C102.665 76.7638 102.683 76.8866 102.746 77.1827Z" fill="url(#paint1_radial_97_4)"/>
<path fill-rule="evenodd" clip-rule="evenodd" d="M61.597 34.0689C60.5633 34.2902 59.7118 34.8067 59.0283 35.627C58.2437 36.5685 57.8814 37.6312 57.8962 38.9478C57.9103 40.2091 58.3782 41.3904 59.3014 42.4952C60.0225 43.3582 60.9293 44.1317 62.5813 45.2933C63.6091 46.0159 66.7873 48.1463 66.938 48.2136C67.0793 48.2767 67.1294 48.2808 67.4109 48.2521C67.6921 48.2234 67.7407 48.2092 67.8659 48.1191C67.9994 48.0232 70.6683 45.2996 71.5294 44.3806C72.9072 42.9103 73.6357 41.9697 74.1639 40.9793C74.6533 40.0616 74.9223 39.0769 74.9025 38.2759C74.899 38.1339 74.908 38.0089 74.9225 37.998C74.9371 37.9871 74.9323 37.8185 74.912 37.6234C74.8917 37.4283 74.8631 37.2777 74.8484 37.2887C74.8337 37.2997 74.7992 37.1913 74.7718 37.0479C74.67 36.5162 74.4055 35.8714 74.0816 35.3652C73.5353 34.5112 72.6735 33.8132 71.7507 33.4772C70.3377 32.9627 68.6951 33.1612 67.5499 33.9848C67.0455 34.3476 66.5331 34.8844 66.239 35.3583C66.1707 35.4684 66.1035 35.5596 66.0896 35.561C66.0758 35.5624 65.9912 35.4867 65.9017 35.3927C65.8121 35.2988 65.5985 35.1101 65.4269 34.9733C64.3061 34.0801 62.9929 33.77 61.597 34.0689ZM57.927 39.3922C57.9482 39.5962 57.9623 39.6791 57.9583 39.5764C57.9542 39.4738 57.9368 39.3068 57.9196 39.2055C57.9025 39.1042 57.9057 39.1882 57.927 39.3922Z" fill="url(#paint2_radial_97_4)"/>
<path fill-rule="evenodd" clip-rule="evenodd" d="M50.5558 75.0529C49.9329 74.6994 49.2662 74.5767 48.5447 74.6828C47.7166 74.8046 47.0458 75.1774 46.4485 75.848C45.8762 76.4905 45.5696 77.2967 45.5277 78.2692C45.495 79.029 45.5969 79.8271 45.8965 81.1562C46.0829 81.9832 46.7071 84.4876 46.7522 84.5894C46.7945 84.6848 46.8179 84.7094 46.973 84.8216C47.128 84.9337 47.159 84.9484 47.2635 84.9593C47.3749 84.971 49.9718 84.7984 50.8282 84.7225C52.1984 84.601 52.9978 84.4545 53.7191 84.1927C54.3874 83.9502 54.9753 83.5747 55.3333 83.1618C55.3967 83.0886 55.4587 83.0296 55.471 83.0307C55.4834 83.0317 55.5584 82.9446 55.6378 82.837C55.7171 82.7295 55.7719 82.6407 55.7594 82.6396C55.747 82.6385 55.7794 82.5684 55.8314 82.4837C56.0243 82.1698 56.1871 81.7256 56.2563 81.3246C56.373 80.6481 56.259 79.9083 55.948 79.3236C55.4718 78.4283 54.5523 77.7893 53.5964 77.6893C53.1754 77.6452 52.6705 77.6854 52.3044 77.792C52.2195 77.8168 52.1437 77.8325 52.136 77.827C52.1284 77.8215 52.1205 77.7452 52.1185 77.6576C52.1165 77.5699 52.0955 77.3786 52.0718 77.2325C51.9168 76.2777 51.397 75.5304 50.5558 75.0529ZM46.2599 76.086C46.1769 76.1984 46.1459 76.2466 46.1911 76.193C46.2362 76.1394 46.3041 76.0474 46.3419 75.9886C46.3798 75.9297 46.3429 75.9736 46.2599 76.086Z" fill="url(#paint3_radial_97_4)"/>
<path fill-rule="evenodd" clip-rule="evenodd" d="M6.12437 59.3751C5.4421 59.5966 4.90381 60.0048 4.5006 60.6064C4.0378 61.2969 3.86878 62.0398 3.97242 62.9279C4.07173 63.7787 4.47179 64.5438 5.17383 65.2255C5.72225 65.758 6.38963 66.2172 7.58794 66.8864C8.33346 67.3027 10.6313 68.5198 10.7379 68.5547C10.8378 68.5875 10.8719 68.5868 11.06 68.5478C11.2478 68.5088 11.2796 68.4958 11.3578 68.4262C11.4411 68.3521 13.0496 66.3268 13.5657 65.6462C14.3915 64.5572 14.8165 63.8712 15.1027 63.1655C15.3679 62.5117 15.4795 61.828 15.4091 61.2884C15.3966 61.1928 15.3938 61.1077 15.4029 61.0994C15.4119 61.091 15.3967 60.9775 15.3691 60.8471C15.3415 60.7168 15.3114 60.6171 15.3023 60.6255C15.2932 60.634 15.2622 60.5632 15.2334 60.4683C15.1268 60.1163 14.9024 59.6993 14.6476 59.38C14.2179 58.8415 13.5862 58.4302 12.9391 58.2676C11.9484 58.0187 10.8532 58.2672 10.1385 58.9033C9.82365 59.1834 9.51584 59.5817 9.35092 59.9222C9.31263 60.0013 9.27374 60.0676 9.26449 60.0695C9.25523 60.0714 9.19272 60.0262 9.12558 59.969C9.05842 59.9118 8.90073 59.7992 8.77515 59.7188C7.95469 59.1938 7.04581 59.0759 6.12437 59.3751ZM4.02487 63.2258C4.05373 63.3621 4.06914 63.4171 4.0591 63.3481C4.04905 63.279 4.02543 63.1675 4.00662 63.1003C3.98781 63.0331 3.99601 63.0896 4.02487 63.2258Z" fill="url(#paint4_radial_97_4)"/>
<defs>
<radialGradient id="paint0_radial_97_4" cx="0" cy="0" r="1" gradientUnits="userSpaceOnUse" gradientTransform="translate(148.331 25.9346) rotate(60.8422) scale(24.3012 27.9464)">
<stop stop-color="#F7F8DB"/>
<stop offset="0.21" stop-color="#FEE19E"/>
<stop offset="0.675911" stop-color="#E9B161"/>
<stop offset="0.698282" stop-color="#E9B161"/>
<stop offset="1" stop-color="#9A754D"/>
</radialGradient>
<radialGradient id="paint1_radial_97_4" cx="0" cy="0" r="1" gradientUnits="userSpaceOnUse" gradientTransform="translate(107.528 74.8406) rotate(37.7751) scale(19.8378 22.6329)">
<stop stop-color="#F7F8DB"/>
<stop offset="0.21" stop-color="#FEE19E"/>
<stop offset="0.675911" stop-color="#E9B161"/>
<stop offset="0.698282" stop-color="#E9B161"/>
<stop offset="1" stop-color="#9A754D"/>
</radialGradient>
<radialGradient id="paint2_radial_97_4" cx="0" cy="0" r="1" gradientUnits="userSpaceOnUse" gradientTransform="translate(61.3176 38.1461) rotate(43.7215) scale(13.4327 15.3576)">
<stop stop-color="#F7F8DB"/>
<stop offset="0.21" stop-color="#FEE19E"/>
<stop offset="0.675911" stop-color="#E9B161"/>
<stop offset="0.698282" stop-color="#E9B161"/>
<stop offset="1" stop-color="#9A754D"/>
</radialGradient>
<radialGradient id="paint3_radial_97_4" cx="0" cy="0" r="1" gradientUnits="userSpaceOnUse" gradientTransform="translate(48.5421 76.9834) rotate(86.0102) scale(9.07229 10.4827)">
<stop stop-color="#F7F8DB"/>
<stop offset="0.21" stop-color="#FEE19E"/>
<stop offset="0.675911" stop-color="#E9B161"/>
<stop offset="0.698282" stop-color="#E9B161"/>
<stop offset="1" stop-color="#9A754D"/>
</radialGradient>
<radialGradient id="paint4_radial_97_4" cx="0" cy="0" r="1" gradientUnits="userSpaceOnUse" gradientTransform="translate(6.22591 62.148) rotate(37.7751) scale(9.13001 10.4164)">
<stop stop-color="#F7F8DB"/>
<stop offset="0.21" stop-color="#FEE19E"/>
<stop offset="0.675911" stop-color="#E9B161"/>
<stop offset="0.698282" stop-color="#E9B161"/>
<stop offset="1" stop-color="#9A754D"/>
</radialGradient>
</defs>
</svg>
