<svg width="250" height="250" viewBox="0 0 250 250" fill="none" xmlns="http://www.w3.org/2000/svg">
<rect width="250" height="250" rx="125" fill="white"/>
<path d="M26.8469 92.7495L13.8236 86.1208C13.5381 85.9755 13.3492 85.761 13.2569 85.4774C13.1646 85.1937 13.1911 84.9091 13.3364 84.6237L19.322 72.864C19.4602 72.5925 19.6746 72.4123 19.9652 72.3235C20.2594 72.2278 20.5423 72.2491 20.8138 72.3873L21.7955 72.887C22.067 73.0252 22.2525 73.2379 22.3517 73.5251C22.4476 73.8018 22.4264 74.0759 22.2882 74.3475L17.7911 83.1829L20.3184 84.4693L22.9444 79.3101C23.8056 77.6182 24.904 76.4503 26.2399 75.8065C27.5687 75.1592 29.0199 75.236 30.5934 76.0369C32.16 76.8343 33.076 77.9624 33.3416 79.4213C33.6002 80.8766 33.2989 82.4502 32.4378 84.1421L28.2862 92.2987C28.1515 92.5632 27.9476 92.74 27.6744 92.8288C27.3943 92.9142 27.1185 92.8878 26.8469 92.7495ZM26.8562 87.7969L29.4822 82.6377C30.0776 81.468 29.7765 80.5784 28.5789 79.9689C27.3814 79.3593 26.4849 79.6394 25.8896 80.8091L23.2636 85.9683L26.8562 87.7969Z" fill="#282828"/>
<path d="M35.4535 76.2091L28.493 67.0078C26.5941 64.5047 26.9969 61.5238 29.7014 58.0649L33.6008 53.0959C33.7793 52.8685 34.0124 52.7486 34.3003 52.7361C34.5929 52.7175 34.853 52.7974 35.0804 52.9759L46.5949 62.0119C46.8346 62.2 46.9698 62.4452 47.0007 62.7475C47.0255 63.045 46.9438 63.3136 46.7557 63.5533L45.3956 65.2865C45.1979 65.5385 44.954 65.6847 44.664 65.7253C44.3726 65.7548 44.101 65.6708 43.849 65.473L41.5258 63.6499L36.382 70.2046L38.2204 72.6454C38.4242 72.9046 38.5246 73.2068 38.5218 73.5522C38.5127 73.8927 38.4142 74.1828 38.2261 74.4225L36.8009 76.2386C36.6128 76.4783 36.4101 76.5973 36.1929 76.5957C35.9696 76.5893 35.8056 76.545 35.7012 76.463C35.6015 76.3749 35.519 76.2903 35.4535 76.2091ZM34.3084 67.475L38.9168 61.6025L34.1045 57.826L32.0427 60.4534C31.5796 61.0434 31.3435 61.6923 31.3343 62.4001C31.3237 63.0969 31.5409 63.744 31.9857 64.3414L34.3084 67.475Z" fill="#282828"/>
<path d="M47.0856 56.4931C46.7855 56.1433 46.673 55.8023 46.7483 55.4701C46.8236 55.1378 46.959 54.8878 47.1547 54.7199L48.2042 53.8196C48.7497 53.3516 49.459 53.3144 50.332 53.708C50.7498 53.8951 51.215 53.9335 51.7277 53.8231C52.2403 53.7127 52.71 53.4744 53.137 53.1081L55.9208 50.7198C56.5671 50.1653 56.9614 49.647 57.1035 49.1648C57.2457 48.6825 57.1031 48.1924 56.6758 47.6943C56.2485 47.1962 55.7857 46.9808 55.2875 47.0479C54.7893 47.1151 54.217 47.4259 53.5707 47.9804L51.276 49.949C51.0447 50.1474 50.7774 50.2378 50.474 50.2201C50.1715 50.1915 49.9211 50.0615 49.7227 49.8302L49.097 49.1009C48.9088 48.8815 48.8205 48.6227 48.8323 48.3244C48.8448 48.0151 48.9608 47.7664 49.1802 47.5781L51.1814 45.8613C51.8988 45.2458 52.332 44.6889 52.481 44.1905C52.6358 43.6871 52.5072 43.1953 52.0952 42.715C51.678 42.2288 51.2089 42.0239 50.6878 42.1004C50.1726 42.1718 49.5563 42.5153 48.8389 43.1308L46.6776 44.985C45.717 45.8091 45.3657 46.7435 45.6238 47.7882C45.8352 48.5744 45.674 49.1965 45.1404 49.6543L44.082 50.5623C43.7973 50.8065 43.486 50.8935 43.1478 50.8233C42.8097 50.7531 42.5363 50.5965 42.3278 50.3534C41.463 49.3454 41.2633 48.0807 41.7287 46.5595C42.189 45.0323 43.0151 43.7575 44.2069 42.735L46.9374 40.3925C50.3883 37.4319 53.2278 37.2501 55.4559 39.8472C56.3817 40.9264 56.7026 42.1282 56.4184 43.4528C57.8538 43.2302 59.0573 43.6851 60.0289 44.8176C61.204 46.1873 61.6236 47.5464 61.2878 48.8947C60.9528 50.232 59.9849 51.5874 58.3839 52.9609L54.9774 55.8833C53.7738 56.916 52.3826 57.5382 50.804 57.7498C49.2204 57.9556 47.9809 57.5367 47.0856 56.4931Z" fill="#282828"/>
<path d="M64.3611 46.5344L61.4243 35.377C60.6205 32.3397 62.127 29.7361 65.944 27.5662L71.4406 24.4542C71.6921 24.3118 71.9534 24.2896 72.2243 24.3876C72.502 24.4817 72.7121 24.6546 72.8545 24.9061L80.0657 37.6432C80.2158 37.9083 80.2477 38.1865 80.1612 38.4779C80.0709 38.7624 79.8932 38.9797 79.6281 39.1298L77.7109 40.2153C77.4322 40.3731 77.151 40.4156 76.8673 40.3427C76.5867 40.2592 76.3674 40.0781 76.2096 39.7994L74.7547 37.2295L67.504 41.3345L68.2757 44.2912C68.3655 44.6084 68.3434 44.9262 68.2094 45.2445C68.0715 45.556 67.87 45.7868 67.6049 45.9369L65.5959 47.0743C65.3308 47.2244 65.0981 47.2574 64.8978 47.1732C64.6937 47.0823 64.559 46.979 64.4935 46.8635C64.4349 46.744 64.3907 46.6344 64.3611 46.5344ZM66.6247 38.0213L73.1207 34.3436L70.1069 29.0203L67.2006 30.6658C66.5479 31.0353 66.0827 31.5456 65.8049 32.1966C65.53 32.837 65.4847 33.5181 65.6688 34.2398L66.6247 38.0213Z" fill="#282828"/>
<path d="M86.2551 31.7271C85.2985 31.3189 84.6272 30.5491 84.2411 29.4179C83.8525 28.2792 83.9119 27.256 84.4193 26.3481C84.9341 25.4377 85.7423 24.7946 86.844 24.4186C87.9531 24.0401 88.9859 24.0549 89.9424 24.4631C90.9064 24.8689 91.5827 25.641 91.9713 26.7797C92.3574 27.9109 92.293 28.9317 91.7782 29.8421C91.2708 30.75 90.4626 31.3932 89.3535 31.7717C88.2518 32.1476 87.219 32.1328 86.2551 31.7271Z" fill="#282828"/>
<path d="M101.709 30.1788L100.031 15.7329C99.9941 15.4148 100.068 15.1349 100.252 14.8932C100.436 14.6516 100.68 14.5132 100.982 14.4781L105.72 13.9278C106.023 13.8926 106.323 13.9679 106.619 14.1537C106.916 14.3394 107.129 14.5782 107.257 14.8701L111.846 24.4122L114.125 14.0724C114.183 13.7589 114.335 13.4777 114.581 13.2289C114.828 12.9801 115.102 12.8381 115.405 12.8029L120.143 12.2526C120.445 12.2175 120.71 12.2968 120.937 12.4907C121.172 12.6836 121.308 12.9392 121.345 13.2574L123.023 27.7032C123.06 28.0214 122.982 28.3018 122.79 28.5443C122.605 28.7782 122.361 28.9127 122.058 28.9478L119.963 29.1912C119.66 29.2263 119.388 29.1518 119.147 28.9675C118.912 28.7745 118.776 28.519 118.739 28.2008L117.418 16.828L114.638 28.7479C114.563 29.0476 114.401 29.3181 114.154 29.5591C113.906 29.7924 113.631 29.9267 113.328 29.9618L111.663 30.1552C111.361 30.1903 111.062 30.1228 110.767 29.9526C110.479 29.7737 110.26 29.5474 110.11 29.2738L104.683 18.3071L106.004 29.6799C106.041 29.9981 105.964 30.2784 105.772 30.521C105.586 30.7548 105.342 30.8893 105.04 30.9245L102.945 31.1678C102.642 31.203 102.37 31.1284 102.128 30.9441C101.886 30.7521 101.746 30.497 101.709 30.1788Z" fill="#282828"/>
<path d="M143.881 29.2186C142.132 30.4171 139.722 30.832 136.65 30.4633C133.586 30.0955 131.343 29.1219 129.919 27.5425C128.497 25.9554 127.966 23.6531 128.329 20.6357C128.691 17.6183 129.75 15.5108 131.507 14.3133C133.264 13.1157 135.674 12.7008 138.738 13.0686C141.81 13.4374 144.054 14.411 145.47 15.9894C146.893 17.5687 147.424 19.8671 147.061 22.8845C146.699 25.9019 145.639 28.0133 143.881 29.2186ZM141.998 18.0631C141.327 17.0382 140.114 16.4206 138.361 16.2101C136.616 16.0006 135.292 16.3138 134.389 17.1496C133.494 17.9864 132.935 19.3278 132.714 21.1739C132.493 23.0123 132.719 24.4439 133.39 25.4688C134.071 26.4868 135.284 27.1006 137.029 27.3101C138.782 27.5206 140.105 27.2113 141 26.3823C141.895 25.5455 142.453 24.2079 142.674 22.3696C142.895 20.5235 142.67 19.088 141.998 18.0631Z" fill="#282828"/>
<path d="M149.497 30.7591L149.868 29.6972C149.969 29.4095 150.154 29.201 150.422 29.0715C150.699 28.9446 150.98 28.9315 151.268 29.032L152.131 29.3338L157.117 21.6795C158.848 19.0241 161.753 18.4095 165.831 19.8357L171.805 21.9247C172.092 22.0252 172.301 22.2099 172.43 22.4787C172.567 22.75 172.585 23.0294 172.485 23.3171L167.653 37.1333C167.552 37.4209 167.364 37.6281 167.088 37.755C166.822 37.8771 166.545 37.8879 166.257 37.7873L150.173 32.1625C149.886 32.062 149.673 31.876 149.537 31.6047C149.41 31.3286 149.397 31.0467 149.497 30.7591ZM156.39 30.8232L164.233 33.5659L167.59 23.9642L164.283 22.8076C163.582 22.5626 162.936 22.5519 162.345 22.7754C161.754 22.999 161.253 23.4241 160.844 24.0506L156.39 30.8232Z" fill="#282828"/>
<path d="M171.465 38.9576L178.932 26.4233C179.088 26.1616 179.314 25.9961 179.61 25.9268C179.906 25.8575 180.184 25.9009 180.446 26.0568L192.054 32.9719C192.316 33.1279 192.481 33.3538 192.551 33.6497C192.627 33.9495 192.587 34.2304 192.431 34.4921L191.867 35.4385C191.711 35.7002 191.483 35.8691 191.183 35.9451C190.894 36.0184 190.619 35.977 190.357 35.8211L181.588 30.5973L179.843 33.527L187.393 38.0251C187.655 38.181 187.821 38.4069 187.89 38.7028C187.97 38.996 187.932 39.2735 187.776 39.5352L187.212 40.4816C187.056 40.7434 186.828 40.9122 186.529 40.9882C186.239 41.0615 185.964 41.0201 185.702 40.8642L178.151 36.3661L176.382 39.336L185.131 44.5479C185.386 44.6998 185.55 44.9204 185.623 45.2095C185.697 45.4987 185.655 45.7742 185.499 46.0359L184.924 47.0024C184.768 47.2642 184.54 47.4331 184.24 47.509C183.944 47.5783 183.665 47.535 183.403 47.379L171.846 40.4939C171.584 40.338 171.413 40.1134 171.333 39.8202C171.257 39.5204 171.301 39.2328 171.465 38.9576Z" fill="#282828"/>
<path d="M187.14 48.464L196.866 42.0744C199.488 40.3435 202.434 40.938 205.702 43.8579L210.065 47.7692C210.269 47.9517 210.365 48.1899 210.353 48.4838C210.347 48.7828 210.248 49.04 210.055 49.2552L200.316 60.1185C200.112 60.3454 199.859 60.4699 199.556 60.4919C199.264 60.5134 199.005 60.4225 198.778 60.2191L197.111 58.7249C196.884 58.5216 196.76 58.2683 196.738 57.9652C196.727 57.6616 196.823 57.3963 197.026 57.1694L205.295 47.9465L203.166 46.0378C202.607 45.5371 201.975 45.259 201.27 45.2035C200.575 45.1473 199.915 45.3216 199.29 45.7264L190.595 51.4041C190.323 51.5905 190.015 51.6709 189.671 51.6455C189.332 51.6142 189.049 51.4968 188.822 51.2934L187.05 49.7055C186.847 49.5229 186.753 49.3233 186.769 49.1067C186.791 48.8953 186.84 48.746 186.919 48.6587C187.003 48.5767 187.077 48.5118 187.14 48.464Z" fill="#282828"/>
<path d="M204.281 64.3407L215.953 55.5869C216.196 55.4041 216.468 55.3369 216.768 55.3853C217.068 55.4338 217.31 55.5799 217.492 55.8236L225.599 66.633C225.782 66.8768 225.849 67.1487 225.801 67.4487C225.757 67.7549 225.613 67.9994 225.37 68.1822L224.488 68.8432C224.245 69.026 223.97 69.0955 223.663 69.0518C223.368 69.0096 223.129 68.8666 222.946 68.6229L216.822 60.4572L214.094 62.5033L219.367 69.5346C219.55 69.7783 219.617 70.0502 219.569 70.3502C219.531 70.6517 219.391 70.8939 219.147 71.0767L218.266 71.7377C218.022 71.9205 217.747 71.99 217.441 71.9463C217.145 71.9041 216.906 71.7611 216.724 71.5174L211.45 64.4861L208.684 66.5603L214.795 74.7072C214.973 74.9447 215.041 75.2111 214.998 75.5064C214.956 75.8017 214.813 76.0408 214.57 76.2236L213.67 76.8986C213.426 77.0814 213.151 77.1509 212.845 77.1072C212.545 77.0587 212.303 76.9126 212.12 76.6689L204.049 65.9063C203.866 65.6626 203.793 65.3899 203.831 65.0884C203.874 64.7821 204.024 64.5329 204.281 64.3407Z" fill="#282828"/>
<path d="M216.297 81.1916L229.467 74.9134C229.756 74.7756 230.041 74.7565 230.322 74.8561C230.603 74.9557 230.813 75.1501 230.951 75.4393L231.838 77.301C231.969 77.5761 231.985 77.8542 231.885 78.1354C231.789 78.4236 231.603 78.6333 231.328 78.7644L220.739 83.8122L234.176 84.7935C234.529 84.8246 234.871 84.9341 235.203 85.1221C235.535 85.31 235.758 85.5239 235.872 85.7636L237.36 88.8842C237.491 89.1593 237.503 89.4391 237.396 89.7236C237.29 90.0081 237.099 90.216 236.824 90.3471L223.654 96.6253C223.379 96.7564 223.096 96.7703 222.804 96.667C222.519 96.5603 222.312 96.3694 222.181 96.0944L221.293 94.2326C221.162 93.9576 221.144 93.676 221.241 93.3877C221.347 93.1032 221.538 92.8954 221.813 92.7643L231.63 88.0846L219.181 87.2424C218.829 87.2113 218.483 87.0947 218.145 86.8927C217.813 86.6873 217.582 86.447 217.45 86.172L215.781 82.6706C215.65 82.3956 215.633 82.1139 215.729 81.8257C215.832 81.5341 216.022 81.3228 216.297 81.1916ZM236.785 76.5397C237.144 76.3682 237.417 76.4764 237.602 76.8643L238.015 77.7317C238.18 78.0773 238.116 78.4063 237.824 78.7188C237.42 79.162 237.387 79.7362 237.723 80.4414C238.063 81.1537 238.53 81.4892 239.125 81.448C239.555 81.4246 239.852 81.5857 240.017 81.9313L240.431 82.7987C240.616 83.1866 240.528 83.4662 240.169 83.6377C239.202 84.0983 238.283 84.1386 237.409 83.7588C236.536 83.3789 235.843 82.653 235.332 81.5811C234.825 80.5162 234.698 79.5249 234.953 78.6072C235.208 77.6894 235.819 77.0002 236.785 76.5397Z" fill="#282828"/>
<path fill-rule="evenodd" clip-rule="evenodd" d="M86.8586 64.6888C84.6983 65.2367 83.1282 66.1374 81.5369 67.741C79.0139 70.2838 77.7908 73.3523 77.3434 78.2614C77.0372 81.6209 77.0372 175.761 77.3434 179.12C77.7906 184.027 79.0131 187.095 81.5369 189.644C84.0214 192.153 87.1541 193.245 91.0117 192.949C93.0163 192.794 96.1084 191.924 97.9916 190.983C99.8438 190.058 185.047 141.742 186.908 140.562C187.886 139.942 189.555 138.563 190.617 137.499C194.845 133.265 195.84 128.456 193.474 123.684C192.354 121.424 189.558 118.501 186.908 116.82C185.047 115.64 99.8438 67.3238 97.9916 66.399C94.6141 64.7122 89.7262 63.9612 86.8586 64.6888Z" fill="url(#paint0_radial_96_2)"/>
<defs>
<radialGradient id="paint0_radial_96_2" cx="0" cy="0" r="1" gradientUnits="userSpaceOnUse" gradientTransform="translate(76.9998 108.4) rotate(11.87) scale(132.33 118.684)">
<stop stop-color="white"/>
<stop offset="0.15" stop-color="#FBF7D3"/>
<stop offset="0.525" stop-color="#EBB668"/>
<stop offset="0.861667" stop-color="#E2AD61"/>
<stop offset="1" stop-color="#DFAA5E"/>
</radialGradient>
</defs>
</svg>
